<?xml version="1.0" encoding="utf-8"?>
<!-- Generator: Adobe Illustrator 23.0.0, SVG Export Plug-In . SVG Version: 6.00 Build 0)  -->
<svg version="1.1" id="Слой_1" xmlns="http://www.w3.org/2000/svg" xmlns:xlink="http://www.w3.org/1999/xlink" x="0px" y="0px"
	 viewBox="0 0 84.1 84.1" style="enable-background:new 0 0 84.1 84.1;" xml:space="preserve">
<style type="text/css">
	.st0{fill:none;stroke:#9694FF;stroke-width:0.5;stroke-miterlimit:10;}
	.st1{fill:none;stroke:#2D2AFF;stroke-miterlimit:10;}
</style>
<path class="st0" d="M42,83.5C19.1,83.5,0.5,64.9,0.5,42S19.1,0.5,42,0.5S83.5,19.1,83.5,42S64.9,83.5,42,83.5L42,83.5L42,83.5z"/>
<path class="st1" d="M42,73c17.1,0,31-13.9,31-31S59.1,11,42,11S11,24.9,11,42S24.9,73,42,73 M42,74c-17.7,0-32-14.3-32-32
	s14.3-32,32-32s32,14.3,32,32S59.6,74,42,74L42,74L42,74z"/>
</svg>
